# xmcd CD database file
#
# Track frame offsets:
#	150
#	15606
#	29438
#	45337
#	62046
#	76454
#	87697
#	103669
#	121525
#	137415
#	153945
#
# Disc length: 2242 seconds
#
# Revision: 0
# Processed by: cddbd v1.5.2PL0 Copyright (c) Steve Scherf et al.
# Submitted via: CDex 1.51
#
DISCID=7f08c00b
DTITLE=Road Chicks - Bitter Sweet
DYEAR=2012
DGENRE=Country
TTITLE0=Road Chicks - Good Riddance
TTITLE1=Wild Thing in Me
TTITLE2=Make Me Love You
TTITLE3=If The End Was Easy
TTITLE4=Cool In My Skin
TTITLE5=Breathless 
TTITLE6=Cupid You Must Have Been Drinking 
TTITLE7=Looking For Love With Eyes Closed
TTITLE8=Just Smile
TTITLE9=1000 Things
TTITLE10=I Love You But Shut Up
EXTD=YEAR: 2012
EXTT0=
EXTT1=
EXTT2=
EXTT3=
EXTT4=
EXTT5=
EXTT6=
EXTT7=
EXTT8=
EXTT9=
EXTT10=
PLAYORDER=
